# xmcd CD database file
#
# Track frame offsets:
#	150
#	12235
#	23765
#	35565
#	47200
#	58595
#	71155
#	82120
#	92615
#	104960
#	117275
#	130375
#	142735
#	154965
#	167535
#	179070
#	191545
#	204380
#	216175
#	228575
#
# Disc length: 3208 seconds
#
# Revision: 0
# Processed by: cddbd v1.5.2PL0 Copyright (c) Steve Scherf et al.
# Submitted via: CDex 1.51
#
DISCID=260c8614
DTITLE=Hank Williams - A Country Legend - 40 Great Tracks
DYEAR=1951
DGENRE=Country
TTITLE0=Your Cheatin' Heart
TTITLE1=Kaw-Liga
TTITLE2=Take These Chains From My Heart
TTITLE3=You Win Again
TTITLE4=Window Shopping
TTITLE5=I Won't Be Home No More
TTITLE6=Weary Blues From Waitin'
TTITLE7=Please Don't Let Me Love You
TTITLE8=Move It On Over
TTITLE9=Lovesick Blues
TTITLE10=Wedding Bells
TTITLE11=Honky Tonkin'
TTITLE12=Cold, Cold Heart
TTITLE13=I'm So Lonesome I Could Cry
TTITLE14=My Bucket's Got A Hole In It
TTITLE15=Rootie Tootie
TTITLE16=On The Banks Of The Old Pontchartrain
TTITLE17=Long Gone Lonesome Blues
TTITLE18=They'll Never Take Her Love From Me
TTITLE19=I'll Be A Bachelor 'Til I Die
EXTD=YEAR: 1951
EXTT0=
EXTT1=
EXTT2=
EXTT3=
EXTT4=
EXTT5=
EXTT6=
EXTT7=
EXTT8=
EXTT9=
EXTT10=
EXTT11=
EXTT12=
EXTT13=
EXTT14=
EXTT15=
EXTT16=
EXTT17=
EXTT18=
EXTT19=
PLAYORDER=
